HIERARCHY
ROOT Hips
{
	OFFSET 0.00000 0.00000 0.00000
	CHANNELS 6 Xposition Yposition Zposition Zrotation Yrotation Xrotation 
	JOINT LHipJoint
	{
		OFFSET 0 0 0
		CHANNELS 3 Zrotation Yrotation Xrotation
		JOINT LeftHip
		{
			OFFSET 1.85590 -1.73949 0.84976
			CHANNELS 3 Zrotation Yrotation Xrotation
			JOINT LeftKnee
			{
				OFFSET 2.36836 -6.50702 0.00000
				CHANNELS 3 Zrotation Yrotation Xrotation
				JOINT LeftAnkle
				{
					OFFSET 2.53268 -6.95849 0.00000
					CHANNELS 3 Zrotation Yrotation Xrotation
					JOINT LeftToe
					{
						OFFSET 0.15935 -0.43781 1.94506
						CHANNELS 3 Zrotation Yrotation Xrotation
						End Site
						{
							OFFSET 0.00000 -0.00000 1.00661
						}
					}
				}
			}
		}
	}
	JOINT RHipJoint
	{
		OFFSET 0 0 0
		CHANNELS 3 Zrotation Yrotation Xrotation
		JOINT RightHip
		{
			OFFSET -1.68297 -1.73949 0.84976
			CHANNELS 3 Zrotation Yrotation Xrotation
			JOINT RightKnee
			{
				OFFSET -2.44709 -6.72334 0.00000
				CHANNELS 3 Zrotation Yrotation Xrotation
				JOINT RightAnkle
				{
					OFFSET -2.43843 -6.69953 0.00000
					CHANNELS 3 Zrotation Yrotation Xrotation
					JOINT RightToe
					{
						OFFSET -0.20854 -0.57295 2.02172
						CHANNELS 3 Zrotation Yrotation Xrotation
						End Site
						{
							OFFSET -0.00000 -0.00000 1.05594
						}
					}
				}
			}
		}
	}
	JOINT lowerback
	{
		OFFSET 0 0 0
		CHANNELS 3 Zrotation Yrotation Xrotation
		JOINT Chest
		{
			OFFSET -0.01560 2.23971 -0.03712
			CHANNELS 3 Zrotation Yrotation Xrotation
			JOINT Chest2
			{
				OFFSET 0.05490 2.19225 -0.19086
				CHANNELS 3 Zrotation Yrotation Xrotation
				JOINT lowerneck
				{
					OFFSET 0 0 0
					CHANNELS 3 Zrotation Yrotation Xrotation
					JOINT Neck
					{
						OFFSET -0.12403 1.43168 0.27585
						CHANNELS 3 Zrotation Yrotation Xrotation
						JOINT Head
						{
							OFFSET 0.17855 1.46173 -0.32578
							CHANNELS 3 Zrotation Yrotation Xrotation
							End Site
							{
								OFFSET 0.07217 1.51590 -0.14537
							}
						}
					}
				}
				JOINT LeftCollar
				{
					OFFSET 0 0 0
					CHANNELS 3 Zrotation Yrotation Xrotation
					JOINT LeftShoulder
					{
						OFFSET 3.27650 0.85634 0.05396
CHANNELS 3 Zrotation Xrotation Yrotation
						JOINT LeftElbow
						{
OFFSET 0 -4.967550 0.000000
CHANNELS 3 Zrotation Xrotation Yrotation
							JOINT LeftWrist
							{
OFFSET 0 -3.357510 0.000000
CHANNELS 3 Zrotation Xrotation Yrotation
								JOINT lhand
								{
									OFFSET 0 0 0
CHANNELS 3 Zrotation Xrotation Yrotation
									JOINT LFingers
									{
OFFSET 0 -0.796970 0.000000
CHANNELS 3 Zrotation Xrotation Yrotation
										End Site
										{
OFFSET 0 -0.642540 0.000000
										}
									}
								}
								JOINT LThumb
								{
OFFSET 0 0.000000 0.000000
CHANNELS 3 Zrotation Xrotation Yrotation
									End Site
									{
OFFSET 0 -0.652350 0.652350
									}
								}
							}
						}
					}
				}
				JOINT RightCollar
				{
					OFFSET 0 0 0
					CHANNELS 3 Zrotation Yrotation Xrotation
					JOINT RightShoulder
					{
						OFFSET -3.24434 1.02034 0.34688
CHANNELS 3 Zrotation Xrotation Yrotation
						JOINT RightElbow
						{
OFFSET 0 -5.218590 -0.000000
CHANNELS 3 Zrotation Xrotation Yrotation
							JOINT RightWrist
							{
OFFSET 0 -3.365040 0.000000
CHANNELS 3 Zrotation Xrotation Yrotation
								JOINT rhand
								{
									OFFSET 0 0 0
CHANNELS 3 Zrotation Xrotation Yrotation
									JOINT RFingers
									{
OFFSET 0 -0.620440 0.000000
CHANNELS 3 Zrotation Xrotation Yrotation
										End Site
										{
OFFSET 0 -0.500220 0.000000
										}
									}
								}
								JOINT RThumb
								{
OFFSET 0 0.000000 0.000000
CHANNELS 3 Zrotation Xrotation Yrotation
									End Site
									{
OFFSET 0 -0.507860 0.507860
									}
								}
							}
						}
					}
				}
			}
		}
	}
}
MOTION
Frames: 12
Frame Time: 0.008333333333333333
9.358159 16.921330 -2.141518 2.143460 -0.543910 4.690841 0.000000 0.000000 0.000000 -27.213987 -1.820742 -12.445221 1.717806 8.250480 23.478257 0.766064 -2.263591 -15.923571 0.003133 -0.302104 -0.830057 0.000000 0.000000 0.000000 17.935586 3.902344 -30.264628 -11.744913 -18.279386 65.176380 -0.429016 -4.914365 -15.154768 -0.690856 5.312301 -14.801682 -3.296612 -1.544419 -3.672247 2.549902 -1.973194 -0.604836 4.381370 -1.013169 1.638785 -11.017186 -3.488526 -23.039778 9.997714 -3.741930 23.109748 4.987572 -1.377686 11.798549 0.000000 0.000000 0.000000 5.376825 -8.078797 -40.938200 11.706495 -19.362384 2.004342 12.739730 -1.525944 24.676970 0.000000 0.000000 0.000000 -7.125000 0.000000 0.000000 -10.225755 5.094502 -9.432001 0.000000 0.000000 0.000000 -11.521853 13.403507 40.654628 -17.114128 -27.007972 -4.139051 -33.383764 -2.087875 22.954559 0.000000 0.000000 0.000000 7.125000 0.000000 0.000000 -4.828308 56.806504 1.388765
9.366038 16.911207 -2.020487 2.501327 -0.375424 4.529178 0.000000 0.000000 0.000000 -27.687239 -1.608932 -11.457409 1.633914 8.057633 22.889264 0.772972 -2.372075 -15.976088 0.000067 -0.021167 -0.058065 0.000000 0.000000 0.000000 17.497604 4.089082 -30.694098 -11.452422 -18.149139 64.241767 -0.502544 -4.328402 -15.676610 -0.732356 5.467400 -15.246598 -3.641217 -1.704976 -3.584406 2.464520 -2.174790 -0.555891 4.477764 -1.117605 1.669803 -10.935944 -3.343269 -22.979451 9.961937 -3.560795 23.102184 4.989483 -1.294753 11.757824 0.000000 0.000000 0.000000 5.586045 -8.789967 -41.399130 11.981463 -19.776646 2.096166 12.779705 -1.496115 24.882054 0.000000 0.000000 0.000000 -7.125000 0.000000 0.000000 -10.211064 4.885227 -9.459099 0.000000 0.000000 0.000000 -11.686557 13.960546 40.868189 -17.158417 -27.066070 -4.159119 -34.114291 -2.381145 22.021735 0.000000 0.000000 0.000000 7.125000 0.000000 0.000000 -5.807759 55.922850 1.559996
9.373330 16.901346 -1.892145 3.230612 -0.114573 4.305829 0.000000 0.000000 0.000000 -28.571464 -1.304953 -10.384282 1.560923 7.883454 22.361173 0.785820 -2.622925 -16.065747 0.001178 0.180721 0.496625 0.000000 0.000000 0.000000 16.622407 4.038871 -31.051831 -11.129970 -17.996698 63.201211 -0.568173 -3.766003 -16.109417 -0.754927 5.548933 -15.481197 -4.395295 -1.967494 -3.647744 2.291800 -2.489116 -0.337751 4.700140 -1.292408 1.989338 -10.791907 -3.196314 -23.111751 9.954228 -3.385992 23.068640 4.990872 -1.200788 11.744906 0.000000 0.000000 0.000000 5.873009 -9.669679 -41.990350 12.318638 -20.279944 2.212076 12.952841 -2.058791 24.882957 0.000000 0.000000 0.000000 -7.125000 0.000000 0.000000 -10.105641 4.862378 -9.362564 0.000000 0.000000 0.000000 -11.757395 14.167643 40.964515 -17.118761 -27.013983 -4.141132 -34.691552 -1.997508 21.834292 0.000000 0.000000 0.000000 7.125000 0.000000 0.000000 -6.484332 55.842150 1.729660
9.374377 16.895016 -1.770049 3.687382 0.216011 4.181977 0.000000 0.000000 0.000000 -29.113140 -1.074197 -9.477713 1.494608 7.721896 21.872967 0.797721 -2.798658 -16.159842 0.001040 0.095192 0.261593 0.000000 0.000000 0.000000 16.094583 4.091041 -31.495276 -10.781115 -17.823928 62.065725 -0.606280 -3.566657 -16.436094 -0.736882 5.482773 -15.291195 -4.913383 -2.196975 -3.688167 2.205784 -2.770364 -0.191111 4.881641 -1.446494 2.216140 -10.745901 -3.122970 -23.219372 10.001694 -3.300562 23.069209 5.016855 -1.149766 11.754903 0.000000 0.000000 0.000000 6.228026 -10.467812 -43.013537 12.757851 -20.929168 2.367613 13.110343 -3.181142 24.648559 0.000000 0.000000 0.000000 -7.125000 0.000000 0.000000 -9.997848 5.076252 -9.218824 0.000000 0.000000 0.000000 -11.721760 14.353850 40.600532 -17.044735 -26.916585 -4.107595 -34.516650 -1.589536 22.065335 0.000000 0.000000 0.000000 7.125000 0.000000 0.000000 -6.255493 56.064590 1.698653
9.370623 16.890123 -1.654769 3.847734 0.568615 4.163493 0.000000 0.000000 0.000000 -29.290680 -0.938115 -8.739256 1.432231 7.566639 21.405417 0.808978 -2.917158 -16.257781 0.000325 -0.086370 -0.237312 0.000000 0.000000 0.000000 15.933687 4.294294 -32.018557 -10.406174 -17.630543 60.835580 -0.623800 -3.676364 -16.709072 -0.691270 5.314095 -14.806995 -5.148244 -2.373734 -3.707183 2.201838 -2.995093 -0.129663 4.993448 -1.565943 2.329194 -10.781465 -3.115601 -23.287537 10.070429 -3.292015 23.111429 5.053643 -1.139329 11.785243 0.000000 0.000000 0.000000 6.645792 -11.187177 -44.422051 13.254179 -21.657705 2.546916 13.339254 -4.714592 24.322123 0.000000 0.000000 0.000000 -7.125000 0.000000 0.000000 -9.841376 5.372754 -9.013794 0.000000 0.000000 0.000000 -11.641529 14.613358 40.002786 -16.991065 -26.845941 -4.083306 -33.853688 -1.298856 22.560334 0.000000 0.000000 0.000000 7.125000 0.000000 0.000000 -5.435704 56.473674 1.530142
9.362428 16.881928 -1.553096 3.419163 0.827174 4.347047 0.000000 0.000000 0.000000 -28.766409 -1.028607 -8.301379 1.369171 7.404892 20.920732 0.819951 -2.984593 -16.360843 0.000464 0.095725 0.262930 0.000000 0.000000 0.000000 16.473862 4.899404 -32.666170 -9.986146 -17.400042 59.439376 -0.624356 -4.180356 -17.033400 -0.633419 5.090539 -14.167439 -4.752453 -2.402763 -3.692668 2.329625 -3.054958 -0.256477 4.902191 -1.585597 2.183281 -10.914946 -3.203246 -23.245034 10.082235 -3.384174 23.248035 5.071074 -1.193846 11.844274 0.000000 0.000000 0.000000 7.159368 -11.775549 -46.379751 13.726086 -22.340529 2.723941 13.936378 -6.558812 24.232395 0.000000 0.000000 0.000000 -7.125000 0.000000 0.000000 -9.470171 5.385810 -8.661548 0.000000 0.000000 0.000000 -11.655002 15.264304 39.623872 -17.125658 -27.023105 -4.144352 -33.065997 -1.609224 23.090231 0.000000 0.000000 0.000000 7.125000 0.000000 0.000000 -4.450082 56.887313 1.295196
9.358295 16.876869 -1.445149 3.224344 1.089127 4.479541 0.000000 0.000000 0.000000 -28.516098 -1.078684 -7.771000 1.311151 7.252246 20.465150 0.831438 -3.200423 -16.446629 0.007339 0.459073 1.261525 0.000000 0.000000 0.000000 16.656212 5.395506 -33.171300 -9.545190 -17.141877 57.951286 -0.647279 -4.210316 -17.307953 -0.686736 5.291498 -14.743428 -4.576222 -2.438529 -3.687563 2.392674 -3.112098 -0.340665 4.866468 -1.608491 2.094392 -11.102674 -3.298501 -23.163556 10.145769 -3.483223 23.333942 5.114473 -1.250266 11.879653 0.000000 0.000000 0.000000 7.524806 -12.470617 -47.675071 14.123743 -22.909973 2.876954 13.993498 -7.526852 24.310395 0.000000 0.000000 0.000000 -7.125000 0.000000 0.000000 -9.439359 5.300451 -8.647948 0.000000 0.000000 0.000000 -11.829623 16.015106 39.893712 -17.358306 -27.327069 -4.250903 -33.245292 -2.627220 22.673451 0.000000 0.000000 0.000000 7.125000 0.000000 0.000000 -4.720782 56.458502 1.321921
9.356671 16.876896 -1.333313 3.207065 1.399661 4.558260 0.000000 0.000000 0.000000 -28.469323 -1.051734 -7.161232 1.255752 7.103543 20.022673 0.841833 -3.493706 -16.511874 0.013633 0.753359 2.070363 0.000000 0.000000 0.000000 16.578617 5.782202 -33.562217 -9.088674 -16.861115 56.391389 -0.682949 -3.935013 -17.534398 -0.801467 5.703541 -15.929475 -4.569634 -2.506289 -3.671505 2.407002 -3.204009 -0.380669 4.873047 -1.652554 2.055716 -11.308798 -3.378603 -23.019078 10.286498 -3.575485 23.299421 5.186718 -1.295667 11.857928 0.000000 0.000000 0.000000 7.812527 -13.225529 -48.529864 14.496263 -23.438764 3.023259 13.763104 -7.995778 24.445645 0.000000 0.000000 0.000000 -7.125000 0.000000 0.000000 -9.587798 5.194835 -8.807497 0.000000 0.000000 0.000000 -11.988191 16.682329 40.161675 -17.527425 -27.547824 -4.328441 -33.747153 -3.694724 21.831879 0.000000 0.000000 0.000000 7.125000 0.000000 0.000000 -5.412415 55.620702 1.407763
9.357574 16.886203 -1.217541 3.412287 1.820522 4.553468 0.000000 0.000000 0.000000 -28.672739 -0.878459 -6.442156 1.202346 6.956589 19.586950 0.849264 -3.846160 -16.543404 0.013077 0.738914 2.030639 0.000000 0.000000 0.000000 16.187966 6.003189 -33.803552 -8.613018 -16.550331 54.739335 -0.730035 -3.336014 -17.689478 -0.968423 6.260454 -17.543472 -4.778745 -2.643035 -3.622265 2.360749 -3.379090 -0.352612 4.932773 -1.743254 2.087385 -11.513465 -3.417216 -22.759756 10.564711 -3.646324 23.025931 5.304920 -1.313863 11.722572 0.000000 0.000000 0.000000 8.040250 -14.032666 -48.899820 14.870871 -23.965466 3.173546 13.304184 -8.018002 24.577251 0.000000 0.000000 0.000000 -7.125000 0.000000 0.000000 -9.875665 5.122399 -9.093697 0.000000 0.000000 0.000000 -11.977843 17.073466 39.895685 -17.468601 -27.471361 -4.301286 -34.210587 -4.299834 20.774169 0.000000 0.000000 0.000000 7.125000 0.000000 0.000000 -6.058431 54.518476 1.417625
9.356206 16.884512 -1.102965 3.656178 2.276466 4.522678 0.000000 0.000000 0.000000 -28.900002 -0.667232 -5.664210 1.138062 6.773416 19.046396 0.853946 -4.075914 -16.565670 0.007322 0.523534 1.438673 0.000000 0.000000 0.000000 15.803112 6.152576 -33.976097 -8.119072 -16.200220 52.981015 -0.760805 -3.010387 -17.835354 -0.988951 6.329613 -17.743757 -5.071947 -2.828788 -3.518579 2.326927 -3.619615 -0.351987 5.051668 -1.865870 2.075962 -11.576545 -3.390804 -22.518422 10.693448 -3.632772 22.771745 5.354989 -1.300263 11.581299 0.000000 0.000000 0.000000 8.293554 -14.718239 -49.381717 15.247511 -24.488462 3.328616 13.677331 -8.498154 24.615921 0.000000 0.000000 0.000000 -7.125000 0.000000 0.000000 -9.649422 5.035321 -8.895013 0.000000 0.000000 0.000000 -12.050391 17.313634 39.389793 -17.267116 -27.208068 -4.208986 -33.521786 -4.156132 20.509976 0.000000 0.000000 0.000000 7.125000 0.000000 0.000000 -5.338547 54.068897 1.196729
9.353213 16.880192 -0.986274 3.787369 2.650273 4.545230 0.000000 0.000000 0.000000 -29.000419 -0.550123 -4.888267 1.067488 6.566467 18.437878 0.858270 -4.190547 -16.596982 0.003295 0.368652 1.012990 0.000000 0.000000 0.000000 15.562265 6.372195 -34.154938 -7.615708 -15.823228 51.156252 -0.742042 -3.068736 -17.663103 -1.163269 6.800198 -19.143461 -5.281107 -2.997619 -3.487874 2.341806 -3.838635 -0.362731 5.171851 -1.977734 2.089958 -11.541486 -3.353624 -22.443434 10.657034 -3.585009 22.684643 5.338159 -1.281015 11.525632 0.000000 0.000000 0.000000 8.540309 -15.379150 -49.928554 15.642419 -25.031981 3.494071 14.191533 -9.216132 24.542305 0.000000 0.000000 0.000000 -7.125000 0.000000 0.000000 -9.330305 5.041843 -8.592004 0.000000 0.000000 0.000000 -12.196552 17.569368 39.060381 -17.110356 -27.003000 -4.137334 -32.695831 -4.105876 20.310945 0.000000 0.000000 0.000000 7.125000 0.000000 0.000000 -4.466964 53.666829 0.957409
9.348491 16.874706 -0.866405 3.754728 2.903137 4.647042 0.000000 0.000000 0.000000 -28.920831 -0.571097 -4.128216 0.990677 6.334854 17.759152 0.862715 -4.174018 -16.642819 0.002809 0.341914 0.939513 0.000000 0.000000 0.000000 15.518443 6.704509 -34.357799 -7.103451 -15.417993 49.263695 -0.658703 -3.594882 -17.054798 -1.582047 7.932426 -22.510352 -5.355764 -3.132212 -3.569824 2.420977 -4.013438 -0.383010 5.280609 -2.067670 2.148573 -11.402866 -3.316121 -22.593514 10.426533 -3.508962 22.823333 5.244403 -1.261083 11.589178 0.000000 0.000000 0.000000 8.772338 -16.033222 -50.539844 16.062031 -25.604588 3.672764 14.714346 -10.159459 24.334791 0.000000 0.000000 0.000000 -7.125000 0.000000 0.000000 -8.997991 5.180533 -8.253510 0.000000 0.000000 0.000000 -12.425595 17.880222 39.027532 -17.047018 -26.919800 -4.108652 -31.938072 -4.351379 20.024607 0.000000 0.000000 0.000000 7.125000 0.000000 0.000000 -3.691218 53.184574 0.744200
